<svg width="313" height="268" viewBox="0 0 313 268" fill="none" xmlns="http://www.w3.org/2000/svg">
<path d="M62.4914 97.4772C106.522 122.718 98.9848 196.328 51.2108 196.304C30.6061 196.294 12.7819 180.82 4.85157 161.045C-13.4618 115.373 24.6884 75.7988 62.4914 97.4772Z" fill="#FAC663" fill-opacity="0.15"/>
<path d="M107.722 106.615C54.8773 106.589 39.0992 16.9892 89.3113 2.28481C112.188 -4.41239 138.19 11.6974 146.529 41.1269C155.886 74.1126 137.43 106.63 107.722 106.615Z" fill="#FAC663" fill-opacity="0.15"/>
<path d="M121.233 266.098C128.573 264.076 141.598 262.777 155.232 262.596C169.643 262.392 184.731 263.431 194.492 266.134C220.854 273.48 256.74 255.756 248.886 218.905C241.622 184.837 215.46 186.765 209.29 154.479C203.072 121.85 178.856 106.092 155.309 107.311C133.515 108.443 112.298 124.122 106.503 154.436C100.337 186.737 74.2305 184.765 66.9432 218.815C59.0243 255.688 94.9677 273.351 121.233 266.098Z" fill="#FAC663" fill-opacity="0.15"/>
<path d="M200.726 106.664C185.779 106.657 172.946 97.9831 165.819 84.7139C144.632 45.2576 179.488 -9.33257 219.244 2.38194C269.527 17.1769 253.541 106.691 200.726 106.664Z" fill="#FAC663" fill-opacity="0.15"/>
<path d="M224.582 167.057C207.635 125.6 247.879 74.9891 286.283 90.9387C332.542 110.149 312.094 192.893 261.22 192.867C244.893 192.859 231.023 182.817 224.582 167.057Z" fill="#FAC663" fill-opacity="0.15"/>
</svg>
