<svg width="32" height="35" fill="none" xmlns="http://www.w3.org/2000/svg"><path d="M23 6.995L29.576.42C30.47-.476 32 .158 32 1.423v17.573c0-5.7-4.513-9.166-9-12z" fill="#FF7236"/><path d="M32 18.997c0 8.837-7.163 16.001-16 16.001-8.836 0-16-7.164-16-16.001C0 10.159 7.164 3.995 16 3.995c8.837 0 16 6.164 16 15.002z" fill="#FFAA50"/><path d="M9 18.996c0-7.701 4.422-13.37 10.31-14.7A18.328 18.328 0 0016 3.995c-2.944 0-5.694.697-8.063 1.937L2.424.419C1.53-.476 0 .158 0 1.423v17.573c0-.36 0-.358 0 0 0 8.838 7.163 16.002 16 16.002 1.135 0 2.242-.122 3.31-.347C13.422 33.125 9 26.698 9 18.996z" fill="#FF7236"/><path d="M12.5 28.997c1.933 0 3.5-1.343 3.5-3s-1.567-3-3.5-3-3.5 1.343-3.5 3 1.567 3 3.5 3zm7 0c1.933 0 3.5-1.343 3.5-3s-1.567-3-3.5-3-3.5 1.343-3.5 3 1.567 3 3.5 3z" fill="#FFFDFB"/><path d="M16 25.998a2 2 0 100-4 2 2 0 000 4z" fill="#FF913C"/><path d="M10 19.997a1 1 0 01-1-1v-1a1 1 0 112 0v1a1 1 0 01-1 1zm12 0a1 1 0 01-1-1v-1a1 1 0 112 0v1a1 1 0 01-1 1z" fill="#1A212F"/></svg>