<svg width="313" height="268" fill="none" xmlns="http://www.w3.org/2000/svg"><path d="M62.491 97.477c44.031 25.241 36.494 98.851-11.28 98.827-20.605-.01-38.43-15.484-46.36-35.259-18.313-45.672 19.837-85.246 57.64-63.568zm45.231 9.138c-52.845-.026-68.623-89.626-18.41-104.33 22.876-6.697 48.878 9.412 57.217 38.842 9.357 32.986-9.099 65.503-38.807 65.488z" fill="#FAC663" fill-opacity=".15"/><path d="M121.233 266.098c7.34-2.022 20.365-3.321 33.999-3.502 14.411-.204 29.499.835 39.26 3.538 26.362 7.346 62.248-10.378 54.394-47.229-7.264-34.068-33.426-32.14-39.596-64.426-6.218-32.629-30.434-48.387-53.981-47.168-21.794 1.132-43.011 16.811-48.806 47.125-6.166 32.301-32.272 30.329-39.56 64.379-7.919 36.873 28.025 54.536 54.29 47.283zm79.493-159.434c-14.947-.007-27.78-8.68-34.907-21.95-21.187-39.456 13.669-94.047 53.425-82.332 50.283 14.795 34.297 104.309-18.518 104.282z" fill="#FAC663" fill-opacity=".15"/><path d="M224.582 167.057c-16.947-41.457 23.297-92.068 61.701-76.118 46.259 19.21 25.811 101.954-25.063 101.928-16.327-.008-30.197-10.05-36.638-25.81z" fill="#FAC663" fill-opacity=".15"/></svg>